# AST/ASF file generated using VICON BodyLanguage
# -----------------------------------------------
:version 1.10
:name VICON
:units
  mass 1.0
  length 0.45
  angle deg
:documentation
   .ast/.asf automatically generated from VICON data using
   VICON BodyBuilder and BodyLanguage model FoxedUp or BRILLIANT.MOD
:root
   order TX TY TZ RX RY RZ
   axis XYZ
   position 0 0 0  
   orientation 0 0 0 
:bonedata
  begin
     id 1 
     name lhipjoint
     direction 0.692814 -0.645514 0.321437 
     length 2.38754 
     axis 0 0 0  XYZ
  end
  begin
     id 2 
     name lfemur
     direction 0.34202 -0.939693 0  
     length 6.41921  
     axis 0 0 20  XYZ
    dof rx ry rz
    limits (-160.0 20.0)
           (-70.0 70.0)
           (-60.0 70.0)
  end
  begin
     id 3 
     name ltibia
     direction 0.34202 -0.939693 0   
     length 6.98247   
     axis 0 0 20   XYZ
    dof rx
    limits (-10.0 170.0)
  end
  begin
     id 4 
     name lfoot
     direction 0.0947186 -0.260237 0.960888   
     length 1.83034   
     axis -90 7.62852e-016 20   XYZ
    dof rx rz
    limits (-45.0 90.0)
           (-70.0 20.0)
  end
  begin
     id 5 
     name ltoes
     direction 1.53538e-011 -4.21952e-011 1   
     length 0.920499   
     axis -90 7.62852e-016 20   XYZ
    dof rx
    limits (-90.0 20.0)
  end
  begin
     id 6 
     name rhipjoint
     direction -0.631686 -0.693949 0.345555   
     length 2.2209  
     axis 0 0 0  XYZ 
  end
  begin
     id 7 
     name rfemur
     direction -0.34202 -0.939693 0   
     length 6.49542   
     axis 0 0 -20   XYZ
    dof rx ry rz
    limits (-160.0 20.0)
           (-70.0 70.0)
           (-70.0 60.0)
  end
  begin
     id 8 
     name rtibia
     direction -0.34202 -0.939693 0   
     length 7.21712   
     axis 0 0 -20   XYZ
    dof rx
    limits (-10.0 170.0)
 end
 begin
     id 9 
     name rfoot
     direction -0.0825378 -0.226771 0.970444   
     length 1.89724  
     axis -90 -7.62852e-016 -20   XYZ
    dof rx rz
    limits (-45.0 90.0)
           (-20.0 70.0)
  end
  begin
     id 10 
     name rtoes
     direction -1.53515e-011 -4.22016e-011 1   
     length 0.955868   
     axis -90 -7.62852e-016 -20   XYZ
    dof rx
    limits (-90.0 20.0)
  end
  begin
     id 11 
     name lowerback
     direction -0.0104711 0.984802 -0.173368   
     length 1.84931   
     axis 0 0 0   XYZ
    dof rx ry rz
    limits (-20.0 45.0)
           (-30.0 30.0)
           (-30.0 30.0)
  end
  begin
     id 12 
     name upperback
     direction -0.00286433 0.999996 -0.000382853   
     length 1.85768   
     axis 0 0 0   XYZ
    dof rx ry rz
    limits (-20.0 45.0)
           (-30.0 30.0)
           (-30.0 30.0)
  end
  begin
     id 13 
     name thorax
     direction 0.00167534 0.996793 0.0800069   
     length 1.92   
     axis 0 0 0   XYZ
    dof rx ry rz
    limits (-20.0 45.0)
           (-30.0 30.0)
           (-30.0 30.0)
  end
  begin
     id 14 
     name lowerneck
     direction -0.0672491 0.995415 0.068018   
     length 1.58923   
     axis 0 0 0   XYZ
    dof rx ry rz
    limits (-20.0 45.0)
           (-30.0 30.0)
           (-30.0 30.0)
  end
  begin
     id 15 
     name upperneck
     direction 0.0958019 0.982476 -0.159884   
     length 1.60189   
     axis 0 0 0   XYZ
    dof rx ry rz
    limits (-20.0 45.0)
           (-30.0 30.0)
           (-30.0 30.0)
  end
  begin
     id 16
     name head
     direction 0.032989 0.997338 -0.0650226  
     length 1.61681  
     axis 0 0 0   XYZ
    dof rx ry rz
    limits (-20.0 45.0)
           (-30.0 30.0)
           (-30.0 30.0)
  end
  begin
     id 17 
     name lclavicle
     direction 0.954279 0.298875 -0.00496069  
     length 2.99449  
     axis 0 0 0   XYZ
    dof ry rz
    limits (-20.0 10.0)
           (0.0 20.0)
  end
  begin
     id 18 
     name lhumerus
     direction 1 -4.48985e-011 -4.2057e-027   
     length 4.79185   
     axis 180 -30 -90   XYZ
    dof rx ry rz
    limits (-60.0 90.0)
           (-90.0 90.0)
           (-90.0 90.0)
  end
  begin
     id 19
     name lradius
     direction 1 -4.48945e-011 1.15441e-028   
     length 2.65553   
     axis 180 -30 -90   XYZ
    dof rx
    limits (-10.0 170.0)
  end
  begin
     id 20
     name lwrist
     direction 1 -4.4899e-011 4.8894e-028   
     length 1.32777   
     axis -2.56392e-016 90 90   XYZ
    dof ry
    limits (-180.0 0.0)
 end
  begin
     id 21 
     name lhand
     direction 1 -4.48908e-011 9.7788e-028   
     length 0.743904   
     axis -6.23971e-016 90 90   XYZ
    dof rx rz
    limits (-90.0 90.0)
           (-45.0 45.0)
  end
  begin
     id 22 
     name lfingers
     direction 1 -4.49068e-011 1.95576e-027   
     length 0.599754   
     axis -1.24794e-015 90 90   XYZ
    dof rx
    limits (0.0 90.0)
  end
  begin
     id 23
     name lthumb
     direction 0.707107 -6.34883e-011 0.707107   
     length 0.861131   
     axis -90 45 2.85299e-015   XYZ
    dof rx rz
    limits (-45.0 45.0)
           (-45.0 45.0)
  end
  begin
     id 24 
     name rclavicle
     direction -0.957921 0.286916 0.00811568   
     length 3.06817  
     axis 0 0 0   XYZ 
    dof ry rz
    limits (-10.0 20.0)
           (-20.0 0.0)
  end
  begin
     id 25 
     name rhumerus
     direction -1 -4.48971e-011 -3.07942e-027  
     length 4.77254   
     axis 180 30 90   XYZ
    dof rx ry rz
    limits (-90.0 60.0)
           (-90.0 90.0)
           (-90.0 90.0)
  end
  begin
     id 26 
     name rradius
     direction -1 -4.48957e-011 -9.6815e-028   
     length 2.75995   
     axis 180 30 90   XYZ
    dof rx
    limits (-10.0 170.0)
  end
  begin
     id 27 
     name rwrist
     direction -1 -4.48979e-011 4.8894e-028   
     length 1.37997   
     axis -2.56392e-016 -90 -90   XYZ
    dof ry
    limits (-180.0 0.0)
  end
  begin
     id 28
     name rhand
     direction -1 -4.48906e-011 9.7788e-028   
     length 0.701619   
     axis -6.23971e-016 -90 -90   XYZ
    dof rx rz
    limits (-90.0 90.0)
           (-45.0 45.0)
  end
  begin
     id 29
     name rfingers
     direction -1 -4.49018e-011 1.95576e-027   
     length 0.565663   
     axis -1.24794e-015 -90 -90   XYZ
    dof rx
    limits (0.0 90.0)
  end
  begin
     id 30
     name rthumb
     direction -0.707107 -6.34881e-011 0.707107   
     length 0.812183   
     axis -90 -45 -2.85299e-015   XYZ
    dof rx rz
    limits (-45.0 45.0)
           (-45.0 45.0)
  end
:hierarchy
  begin
    root lhipjoint rhipjoint lowerback
    lhipjoint lfemur
    lfemur ltibia
    ltibia lfoot
    lfoot ltoes
    rhipjoint rfemur
    rfemur rtibia
    rtibia rfoot
    rfoot rtoes
    lowerback upperback
    upperback thorax
    thorax lowerneck lclavicle rclavicle
    lowerneck upperneck
    upperneck head
    lclavicle lhumerus
    lhumerus lradius
    lradius lwrist
    lwrist lhand lthumb
    lhand lfingers
    rclavicle rhumerus
    rhumerus rradius
    rradius rwrist
    rwrist rhand rthumb
    rhand rfingers
  end

#!OML:ASF F:\VICON\USERDATA\INSTALL\rory3\rory3.ASF
:FULLY-SPECIFIED
:DEGREES
1
root 0.407767 16.1884 0.281291 4.51747 -1.98243 0.359202
lowerback 4.9832 0.230151 -5.08328
upperback 0.942735 -0.0247899 -3.0683
thorax -1.82341 0.00874463 -0.307971
lowerneck -5.13641 -12.1584 -16.3358
upperneck 20.717 -17.2559 11.1629
head 9.82361 -8.47533 4.47005
rclavicle -2.18663e-015 -3.18055e-015
rhumerus -94.5443 49.4873 -130.522
rradius 87.6205
rwrist 41.2634
rhand -50.1966 61.2716
rfingers 7.12502
rthumb -22.7778 32.5963
lclavicle -2.18663e-015 -3.18055e-015
lhumerus -97.6761 -46.564 126.298
lradius 94.5235
lwrist -6.9768
lhand -45.1457 -23.8642
lfingers 7.12502
lthumb -17.9238 5.32982
rfemur -3.4982 10.8555 15.5922
rtibia 13.6656
rfoot -11.8575 -14.5637
rtoes -3.51949
lfemur 4.39737 -6.34653 -18.8117
ltibia 2.06736e-014
lfoot -6.04881 10.5592
ltoes -8.93301
2
root 0.407269 16.1892 0.281183 4.50812 -2.01481 0.397276
lowerback 4.98504 0.234838 -5.16658
upperback 0.934517 -0.0232866 -3.05463
thorax -1.83289 0.0102273 -0.247621
lowerneck -5.22925 -12.1447 -16.3843
upperneck 20.8086 -17.235 11.1969
head 9.87838 -8.46199 4.48677
rclavicle 5.36719e-015 -6.36111e-015
rhumerus -94.6276 49.5141 -130.579
rradius 87.6472
rwrist 41.2027
rhand -50.0934 61.4635
rfingers 7.12502
rthumb -22.6787 32.7761
lclavicle 5.36719e-015 -6.36111e-015
lhumerus -97.6799 -46.5398 126.338
lradius 94.5036
lwrist -6.94697
lhand -45.1925 -23.9218
lfingers 7.12502
lthumb -17.9689 5.26817
rfemur -3.51053 10.8417 15.555
rtibia 13.7208
rfoot -11.9126 -14.5282
rtoes -3.45697
lfemur 4.41482 -6.31742 -18.8586
ltibia 9.54166e-015
lfoot -6.03753 10.5598
ltoes -9.12855
3
root 0.405224 16.1891 0.27936 4.51295 -2.02028 0.367074
lowerback 4.99692 0.230545 -5.17537
upperback 0.930241 -0.0302875 -3.03854
thorax -1.8437 0.00706839 -0.225733
lowerneck -5.31774 -12.1365 -16.3146
upperneck 20.8356 -17.2083 11.1398
head 9.88763 -8.4453 4.45574
rclavicle -6.95746e-015 2.06736e-014
rhumerus -94.6814 49.5676 -130.654
rradius 87.6647
rwrist 41.1368
rhand -50.0086 61.2726
rfingers 7.12502
rthumb -22.5974 32.5753
lclavicle -6.95746e-015 2.06736e-014
lhumerus -97.693 -46.5451 126.348
lradius 94.4936
lwrist -6.93143
lhand -45.2167 -24.0144
lfingers 7.12502
lthumb -17.9922 5.17343
rfemur -3.56481 10.9082 15.6
rtibia 13.8029
rfoot -11.9613 -14.5478
rtoes -3.3385
lfemur 4.40013 -6.30945 -18.8171
ltibia 1.11319e-014
lfoot -6.0278 10.5509
ltoes -9.12471
4
root 0.404576 16.189 0.27834 4.52316 -2.01439 0.409201
lowerback 4.9989 0.233849 -5.2305
upperback 0.917879 -0.0298869 -3.04933
thorax -1.85756 0.00795472 -0.206258
lowerneck -5.35602 -12.1301 -16.2826
upperneck 20.8418 -17.1944 11.1231
head 9.88994 -8.43627 4.44526
rclavicle -2.38542e-015 3.65764e-014
rhumerus -94.653 49.5444 -130.629
rradius 87.6321
rwrist 41.154
rhand -49.9151 61.3147
rfingers 7.12502
rthumb -22.5076 32.6065
lclavicle -2.38542e-015 3.65764e-014
lhumerus -97.7467 -46.5478 126.409
lradius 94.4793
lwrist -6.9468
lhand -45.2842 -23.9624
lfingers 7.12502
lthumb -18.0571 5.21944
rfemur -3.60702 10.9355 15.557
rtibia 13.8544
rfoot -12.0054 -14.5642
rtoes -3.36201
lfemur 4.37329 -6.31844 -18.8522
ltibia -4.77083e-015
lfoot -6.02753 10.5548
ltoes -8.98154
5
root 0.403765 16.189 0.278026 4.52665 -2.02465 0.452568
lowerback 4.98423 0.228819 -5.29079
upperback 0.919377 -0.0387875 -3.06155
thorax -1.84744 0.00362671 -0.184668
lowerneck -5.36482 -12.1145 -16.2756
upperneck 20.7951 -17.182 11.1835
head 9.87804 -8.42502 4.46697
rclavicle -1.51076e-014 -1.90833e-014
rhumerus -94.617 49.5588 -130.605
rradius 87.6353
rwrist 41.0035
rhand -49.5319 61.473
rfingers 7.12502
rthumb -22.1397 32.7207
lclavicle -1.51076e-014 -1.90833e-014
lhumerus -97.7025 -46.5404 126.379
lradius 94.4677
lwrist -6.92285
lhand -45.2414 -23.9899
lfingers 7.12502
lthumb -18.0159 5.19573
rfemur -3.62475 10.8955 15.5121
rtibia 13.8784
rfoot -11.9695 -14.5547
rtoes -3.5871
lfemur 4.36147 -6.31158 -18.8953
ltibia 4.77083e-015
lfoot -6.03511 10.6032
ltoes -9.30547
6
root 0.403776 16.1884 0.278512 4.4981 -2.06654 0.410131
lowerback 5.02338 0.242198 -5.27156
upperback 0.906511 -0.0233011 -3.03632
thorax -1.8832 0.012091 -0.170535
lowerneck -5.3285 -12.1026 -16.2961
upperneck 20.7549 -17.1714 11.215
head 9.86039 -8.42084 4.48499
rclavicle 1.05356e-014 -3.18055e-015
rhumerus -94.65 49.565 -130.58
rradius 87.6881
rwrist 40.8637
rhand -49.2283 61.4278
rfingers 7.12502
rthumb -21.8483 32.6412
lclavicle 1.05356e-014 -3.18055e-015
lhumerus -97.7045 -46.4884 126.395
lradius 94.4807
lwrist -6.93489
lhand -45.1665 -23.9635
lfingers 7.12502
lthumb -17.9439 5.22868
rfemur -3.6002 10.8285 15.5583
rtibia 13.8861
rfoot -11.8915 -14.474
rtoes -3.8121
lfemur 4.40764 -6.26698 -18.8605
ltibia 9.54166e-015
lfoot -6.09624 10.6674
ltoes -9.96425
7
root 0.404421 16.188 0.279022 4.47745 -2.07756 0.403373
lowerback 5.03744 0.241867 -5.25914
upperback 0.91238 -0.0239242 -3.03923
thorax -1.885 0.0116594 -0.180445
lowerneck -5.38108 -12.1157 -16.2508
upperneck 20.7797 -17.1841 11.1853
head 9.87354 -8.42349 4.46268
rclavicle -1.5704e-014 -2.8625e-014
rhumerus -94.7724 49.5749 -130.681
rradius 87.67
rwrist 41.0295
rhand -49.5467 61.2895
rfingers 7.12502
rthumb -22.154 32.5389
lclavicle -1.5704e-014 -2.8625e-014
lhumerus -97.7101 -46.4781 126.39
lradius 94.4686
lwrist -6.96985
lhand -45.1965 -23.9774
lfingers 7.12502
lthumb -17.9727 5.21213
rfemur -3.58395 10.851 15.5579
rtibia 13.8897
rfoot -11.9239 -14.4529
rtoes -3.92491
lfemur 4.44502 -6.25582 -18.861
ltibia 3.18055e-015
lfoot -6.14241 10.6304
ltoes -10.1892
8
root 0.405193 16.1872 0.279029 4.46474 -2.04186 0.435201
lowerback 5.05527 0.225661 -5.27617
upperback 0.912554 -0.0480512 -3.05327
thorax -1.89395 -0.000108036 -0.183901
lowerneck -5.44607 -12.1362 -16.2585
upperneck 20.8454 -17.2098 11.1839
head 9.91374 -8.43296 4.45492
rclavicle 8.15017e-015 -4.13472e-014
rhumerus -94.8474 49.5571 -130.749
rradius 87.6123
rwrist 41.1899
rhand -49.9335 61.2608
rfingers 7.12502
rthumb -22.5253 32.5547
lclavicle 8.15017e-015 -4.13472e-014
lhumerus -97.6483 -46.4745 126.326
lradius 94.5033
lwrist -6.75341
lhand -45.0333 -24.3666
lfingers 7.12502
lthumb -17.8157 4.83734
rfemur -3.55274 10.8568 15.5205
rtibia 13.8725
rfoot -11.9859 -14.4472
rtoes -3.45951
lfemur 4.45645 -6.29419 -18.8985
ltibia 2.38542e-014
lfoot -6.11526 10.5665
ltoes -9.6841
9
root 0.403881 16.1884 0.278968 4.47567 -2.03607 0.441263
lowerback 5.0479 0.222225 -5.30777
upperback 0.89927 -0.054513 -3.05467
thorax -1.90328 -0.00280287 -0.167357
lowerneck -5.4257 -12.1336 -16.2048
upperneck 20.8098 -17.2059 11.1567
head 9.88853 -8.43067 4.43954
rclavicle -1.59028e-015 3.18055e-015
rhumerus -94.8594 49.5421 -130.769
rradius 87.6008
rwrist 41.1699
rhand -50.0348 61.1498
rfingers 7.12502
rthumb -22.6225 32.4555
lclavicle -1.59028e-015 3.18055e-015
lhumerus -97.5768 -46.5058 126.238
lradius 94.5857
lwrist -6.25981
lhand -44.6754 -24.999
lfingers 7.12502
lthumb -17.4713 4.23586
rfemur -3.56837 10.8544 15.5134
rtibia 13.8747
rfoot -12.0533 -14.4376
rtoes -3.17827
lfemur 4.44323 -6.30022 -18.9015
ltibia 6.36111e-015
lfoot -6.01159 10.5331
ltoes -9.16037
10
root 0.401333 16.1896 0.27935 4.48926 -2.06519 0.411099
lowerback 5.01963 0.220386 -5.32894
upperback 0.883795 -0.0563627 -3.03683
thorax -1.90332 -0.00337236 -0.137022
lowerneck -5.36978 -12.1007 -16.1428
upperneck 20.7445 -17.1591 11.1181
head 9.83757 -8.4106 4.42851
rclavicle -1.49089e-014 -2.54444e-014
rhumerus -94.9531 49.5781 -130.87
rradius 87.5959
rwrist 41.1381
rhand -50.0733 60.9215
rfingers 7.12502
rthumb -22.6594 32.2317
lclavicle -1.49089e-014 -2.54444e-014
lhumerus -97.6224 -46.4774 126.272
lradius 94.6058
lwrist -6.10396
lhand -44.5377 -24.949
lfingers 7.12502
lthumb -17.3387 4.29758
rfemur -3.61816 10.9092 15.5591
rtibia 13.9401
rfoot -12.0482 -14.4805
rtoes -3.32266
lfemur 4.4326 -6.26839 -18.8567
ltibia -2.38542e-014
lfoot -5.98342 10.5289
ltoes -8.7321
11
root 0.39911 16.1899 0.281079 4.4939 -2.09705 0.414299
lowerback 5.00263 0.223869 -5.35472
upperback 0.868086 -0.0529231 -3.04822
thorax -1.91015 -0.001219 -0.134658
lowerneck -5.3344 -12.0846 -16.1528
upperneck 20.7329 -17.1526 11.1713
head 9.83191 -8.40581 4.45189
rclavicle 1.17283e-014 -3.49861e-014
rhumerus -94.9847 49.549 -130.937
rradius 87.5981
rwrist 41.1904
rhand -50.0444 60.8559
rfingers 7.12502
rthumb -22.6317 32.1627
lclavicle 1.17283e-014 -3.49861e-014
lhumerus -97.7185 -46.4415 126.313
lradius 94.61
lwrist -6.23668
lhand -44.6126 -24.7042
lfingers 7.12502
lthumb -17.4108 4.53604
rfemur -3.65649 10.9639 15.5643
rtibia 14.0255
rfoot -12.09 -14.4962
rtoes -3.33296
lfemur 4.43458 -6.23664 -18.8528
ltibia -4.77083e-015
lfoot -6.06296 10.5379
ltoes -8.90476
12
root 0.399157 16.1903 0.282528 4.48397 -2.10941 0.445924
lowerback 5.03849 0.227439 -5.38343
upperback 0.837643 -0.0546861 -3.06376
thorax -1.96163 -0.000600105 -0.134822
lowerneck -5.33226 -12.0764 -16.1614
upperneck 20.7342 -17.1455 11.1901
head 9.8335 -8.40182 4.46106
rclavicle 9.93923e-016 -4.92986e-014
rhumerus -95.0457 49.5008 -130.973
rradius 87.6075
rwrist 41.2173
rhand -50.0716 61.0009
rfingers 7.12502
rthumb -22.6578 32.311
lclavicle 9.93923e-016 -4.92986e-014
lhumerus -97.777 -46.4221 126.338
lradius 94.6203
lwrist -6.2983
lhand -44.6125 -24.6877
lfingers 7.12502
lthumb -17.4107 4.55255
rfemur -3.65843 10.7858 15.543
rtibia 14.065
rfoot -11.9309 -14.4602
rtoes -4.63097
lfemur 4.45948 -6.22694 -18.8928
ltibia 4.77083e-015
lfoot -6.14097 10.5772
ltoes -9.11416
